{"title":"Sex.and.the.City.2.CAM.XViD-IMAGiNE","uid":5621870,"size":1475215428,"categoryP":"video","categoryS":"movies","magnet":"?xt=urn:btih:ba891a3346b67f88489e284544d861b3f37a2e8a&amp;dn=Sex.and.the.City.2.CAM.XViD-IMAGiNE&amp;tr=udp%3A%2F%2Ftracker.openbittorrent.com%3A80&amp;tr=udp%3A%2F%2Fopen.demonii.com%3A1337&amp;tr=udp%3A%2F%2Ftracker.coppersurfer.tk%3A6969&amp;tr=udp%3A%2F%2Fexodus.desync.com%3A6969","seeders":0,"leechers":0,"uploader":"upsdave","files":4,"time":1276308693,"description":"Ripper ...........:IMAGiNE                                      IMDB Rating.......:3.7/10                             \nVideo Codec.......:XVID                                         Release Date......:06/11/10\nAudio Codec.......:MP3                                          Theatre Date......:05/27/10\nAudio Bitrate.....:128                                          Runtime...........:2h 16mn\nSubtitles.........:NIL                                          Language..........:ENGLISH\nResolution........:672 x 336                                    IMDb URL..........:http://www.imdb.com/title/tt1261945/\n\n\n[color=yellow]DETAILS:[/color]\n\nVideo\nFormat                           : MPEG-4 Visual\nFormat profile                   : Streaming Video@L1\nFormat settings, BVOP            : Yes\nFormat settings, QPel            : No\nFormat settings, GMC             : No warppoints\nFormat settings, Matrix          : Default\nMuxing mode                      : Packed bitstream\nCodec ID                         : XVID\nCodec ID/Hint                    : XviD\nDuration                         : 2h 16mn\nBit rate                         : 1 290 Kbps\nWidth                            : 672 pixels\nHeight                           : 336 pixels\nDisplay aspect ratio             : 2.000\nFrame rate                       : 25.000 fps\nResolution                       : 24 bits\nColorimetry                      : 4:2:0\nScan type                        : Progressive\nBits/(Pixel*Frame)               : 0.229\nStream size                      : 1.23 GiB (90%)\nWriting library                  : XviD 50\n\nAudio\nFormat                           : MPEG Audio\nFormat version                   : Version 1\nFormat profile                   : Layer 3\nCodec ID                         : 55\nCodec ID/Hint                    : MP3\nDuration                         : 2h 16mn\nBit rate mode                    : Constant\nBit rate                         : 128 Kbps\nMinimum bit rate                 : 128 Kbps\nChannel(s)                       : 2 channels\nSampling rate                    : 44.1 KHz\nResolution                       : 16 bits\nStream size                      : 125 MiB (9%)\nAlignment                        : Split accross interleaves\nInterleave, duration             : 40 ms (1.00 video frame)\nInterleave, preload duration     : 500 ms\n\n\n[color=yellow]NOTES:[/color]\n\nIMAGiNE bringing you another release.....Sex and the City 2\n\nRight first off thanks to the sources on this... We used the video from \nrelizlab and some CAM audio that a friend sent us Thanks Both... :)\nThis video is not the best, but we tried to change a few things in it. We played with the\nrgb, contrast and a sharpening filter amoung a few other things. The audio is more then\ngood enough to hear it, but like always there is a sample included to judge your self.\nShould do until a better video source comes along.\n\nCheers...\n\n\n[color=yellow]SCREENS:[/color]\n\nVideo - 8\n\nAudio - 5","torrent":{"xt":"urn:btih:ba891a3346b67f88489e284544d861b3f37a2e8a","amp;dn":"Sex.and.the.City.2.CAM.XViD-IMAGiNE","amp;tr":["udp%3A%2F%2Ftracker.openbittorrent.com%3A80","udp%3A%2F%2Fopen.demonii.com%3A1337","udp%3A%2F%2Ftracker.coppersurfer.tk%3A6969","udp%3A%2F%2Fexodus.desync.com%3A6969"],"infoHash":"ba891a3346b67f88489e284544d861b3f37a2e8a","infoHashBuffer":{"type":"Buffer","data":[186,137,26,51,70,182,127,136,72,158,40,69,68,216,97,179,243,122,46,138]},"announce":[],"urlList":[]}}